<svg width="145" height="25" viewBox="0 0 145 25" fill="none" xmlns="http://www.w3.org/2000/svg">
<path d="M22.6666 5.39863V1.33257H41.9512V5.39863H34.7625V24.6583H29.8554V5.39863H22.6666Z" fill="#38C042"/>
<path d="M50.5072 25C48.6957 25 47.1364 24.6355 45.8294 23.9066C44.53 23.1701 43.5287 22.1298 42.8255 20.7859C42.1222 19.4343 41.7706 17.836 41.7706 15.9909C41.7706 14.1913 42.1222 12.612 42.8255 11.2528C43.5287 9.8937 44.5185 8.83447 45.795 8.07517C47.0791 7.31587 48.5848 6.93622 50.3123 6.93622C51.4741 6.93622 52.5557 7.12225 53.557 7.49431C54.5659 7.85877 55.4449 8.40926 56.194 9.14579C56.9507 9.88231 57.5392 10.8087 57.9596 11.9248C58.38 13.0334 58.5902 14.3318 58.5902 15.82V17.1526H43.7197V14.1458H53.9926C53.9926 13.4472 53.8398 12.8284 53.534 12.2893C53.2283 11.7502 52.8041 11.3288 52.2614 11.0251C51.7263 10.7137 51.1034 10.5581 50.3925 10.5581C49.6511 10.5581 48.9938 10.7289 48.4205 11.0706C47.8549 11.4047 47.4116 11.8565 47.0905 12.426C46.7695 12.9879 46.6052 13.6143 46.5975 14.3052V17.164C46.5975 18.0296 46.758 18.7775 47.0791 19.4077C47.4077 20.038 47.8702 20.5239 48.4664 20.8656C49.0626 21.2073 49.7696 21.3781 50.5874 21.3781C51.1301 21.3781 51.627 21.3022 52.0779 21.1503C52.5289 20.9985 52.9149 20.7707 53.2359 20.467C53.557 20.1632 53.8015 19.7912 53.9697 19.3508L58.487 19.6469C58.2577 20.7251 57.7876 21.6667 57.0768 22.4715C56.3736 23.2688 55.464 23.8914 54.3481 24.3394C53.2397 24.7798 51.9595 25 50.5072 25Z" fill="#38C042"/>
<path d="M69.7345 25C67.9306 25 66.379 24.6203 65.0796 23.861C63.7878 23.0942 62.7941 22.0311 62.0986 20.672C61.4107 19.3128 61.0667 17.7487 61.0667 15.9795C61.0667 14.1875 61.4145 12.6158 62.11 11.2642C62.8133 9.90509 63.8107 8.84586 65.1025 8.08656C66.3942 7.31967 67.9306 6.93622 69.7115 6.93622C71.2479 6.93622 72.5931 7.21336 73.7473 7.76765C74.9015 8.32194 75.8149 9.10023 76.4875 10.1025C77.1601 11.1048 77.5309 12.2817 77.5996 13.6333H72.9906C72.8607 12.7601 72.5167 12.0577 71.9587 11.5262C71.4084 10.9871 70.6861 10.7175 69.7918 10.7175C69.0351 10.7175 68.3739 10.9226 67.8083 11.3326C67.2503 11.735 66.8146 12.3235 66.5013 13.0979C66.1879 13.8724 66.0312 14.8102 66.0312 15.9112C66.0312 17.0273 66.184 17.9765 66.4898 18.7585C66.8032 19.5406 67.2427 20.1367 67.8083 20.5467C68.3739 20.9567 69.0351 21.1617 69.7918 21.1617C70.3498 21.1617 70.8504 21.0478 71.2937 20.82C71.7447 20.5923 72.1154 20.262 72.4059 19.8292C72.704 19.3888 72.8989 18.861 72.9906 18.246H77.5996C77.5232 19.5824 77.1563 20.7593 76.499 21.7768C75.8493 22.7866 74.9512 23.5763 73.8046 24.1458C72.6581 24.7153 71.3014 25 69.7345 25Z" fill="#327ACC"/>
<path d="M85.611 14.5444V24.6583H80.7268V1.33257H85.4734V10.2506H85.6798C86.0773 9.21792 86.7193 8.40926 87.606 7.8246C88.4926 7.23235 89.6047 6.93622 90.9424 6.93622C92.1653 6.93622 93.2316 7.20197 94.1412 7.73349C95.0584 8.2574 95.7692 9.01291 96.2737 10C96.7858 10.9795 97.0381 12.1526 97.0304 13.5194V24.6583H92.1462V14.385C92.1539 13.3068 91.8787 12.4677 91.3207 11.8679C90.7704 11.268 89.9984 10.9681 89.0047 10.9681C88.3397 10.9681 87.7512 11.1086 87.2391 11.3895C86.7346 11.6705 86.3371 12.0805 86.0467 12.6196C85.7639 13.1511 85.6186 13.7927 85.611 14.5444Z" fill="#327ACC"/>
<path d="M100.966 24.6583V1.33257H116.513V5.39863H105.93V10.9567H115.481V15.0228H105.93V24.6583H100.966Z" fill="#327ACC"/>
<path d="M119.76 24.6583V7.16401H124.645V24.6583H119.76ZM122.214 4.90888C121.488 4.90888 120.865 4.6697 120.345 4.19134C119.833 3.70539 119.577 3.12453 119.577 2.44875C119.577 1.78056 119.833 1.20729 120.345 0.728931C120.865 0.242977 121.488 0 122.214 0C122.94 0 123.559 0.242977 124.071 0.728931C124.591 1.20729 124.851 1.78056 124.851 2.44875C124.851 3.12453 124.591 3.70539 124.071 4.19134C123.559 4.6697 122.94 4.90888 122.214 4.90888Z" fill="#327ACC"/>
<path d="M132.639 7.16401L135.872 13.2802L139.185 7.16401H144.196L139.094 15.9112L144.333 24.6583H139.346L135.872 18.6105L132.455 24.6583H127.411L132.639 15.9112L127.594 7.16401H132.639Z" fill="#327ACC"/>
<path d="M5.16667 19.1667H7.25M11.4167 19.1667H17.6667M6.20833 2.5H16.625C17.7756 2.5 18.7083 3.43274 18.7083 4.58333V8.75C18.7083 9.90059 17.7756 10.8333 16.625 10.8333H6.20833C5.05774 10.8333 4.125 9.90059 4.125 8.75V4.58333C4.125 3.43274 5.05774 2.5 6.20833 2.5ZM3.08333 15H19.75C20.9006 15 21.8333 15.9327 21.8333 17.0833V21.25C21.8333 22.4006 20.9006 23.3333 19.75 23.3333H3.08333C1.93274 23.3333 1 22.4006 1 21.25V17.0833C1 15.9327 1.93274 15 3.08333 15Z" stroke="#327ACC" stroke-width="2" stroke-linecap="round" stroke-linejoin="round"/>
</svg>
